# xmcd CD database file
#
# Track frame offsets:
#	150
#	7987
#	17618
#	54068
#	63781
#	67421
#	88996
#	117906
#	130054
#	145122
#	163932
#	177605
#	189978
#	203167
#	218810
#	226772
#	235449
#	248288
#	258052
#
# Disc length: 3764 seconds
#
# Revision: 0
# Processed by: cddbd v1.5.2PL0 Copyright (c) Steve Scherf et al.
# Submitted via: CDex 1.50
#
DISCID=fe0eb213
DTITLE=Rangers - Live 1970/71 CD 2
DYEAR=2008
DGENRE=Country
TTITLE0=Zlate zvony
TTITLE1=Sberne suroviny
TTITLE2=Medley
TTITLE3=Laska je vec kouzelna
TTITLE4=Uvod k pisni 500 mil
TTITLE5=500 mil
TTITLE6=Nadrazi Tesnov
TTITLE7=Zeneni, zeneni
TTITLE8=Mavaj holky (Ja prochazel se jednou)
TTITLE9=Pole s bavlnou
TTITLE10=Pojd dal
TTITLE11=Sest svicek
TTITLE12=Kdo ma pravo
TTITLE13=Tvym snum zlym
TTITLE14=Plavci
TTITLE15=Jehly, spicky, sochory a kuly
TTITLE16=O.K.
TTITLE17=Male baby
TTITLE18=Zatim co ty spis
EXTD=YEAR: 2008
EXTT0=
EXTT1=
EXTT2=
EXTT3=
EXTT4=
EXTT5=
EXTT6=
EXTT7=
EXTT8=
EXTT9=
EXTT10=
EXTT11=
EXTT12=
EXTT13=
EXTT14=
EXTT15=
EXTT16=
EXTT17=
EXTT18=
PLAYORDER=
